# xmcd
#
# Track frame offsets:
#	150
#	14032
#	34832
#	53856
#	73252
#	89351
#	108011
#	125346
#	139130
#	164238
#	179998
#	190208
#	203283
#	220980
#	236023
#	253811
#
# Disc length: 3556 seconds
#
# Revision: 0
# Processed by: cddbd v1.4PL0 Copyright (c) Steve Scherf et al.
# Submitted via: audiograbber 1.80
#
DISCID=f70de210
DTITLE=compilation disc - The Celtic Love Songs
DYEAR=1900
DGENRE=
TTITLE0=Intro: Launching the boat
TTITLE1=Main Title
TTITLE2=Ailein duinn (Theme from Rob Roy)
TTITLE3=Celtic prayer
TTITLE4=Since you and I where true
TTITLE5=She moved through the fair
TTITLE6=I dreamt I dwelt in marble halls
TTITLE7=I'm a doun
TTITLE8=Dante's prayer
TTITLE9=I whish my love was a red red rose
TTITLE10=Si do mbaimeo
TTITLE11=One I love
TTITLE12=Solveig's song
TTITLE13=Close your eyes
TTITLE14=Only a woman's heart
TTITLE15=Ajde jano
EXTD=
EXTT0=
EXTT1=
EXTT2=
EXTT3=
EXTT4=
EXTT5=
EXTT6=
EXTT7=
EXTT8=
EXTT9=
EXTT10=
EXTT11=
EXTT12=
EXTT13=
EXTT14=
EXTT15=
PLAYORDER=
